<svg width="14" height="13" viewBox="0 0 14 13" fill="none" xmlns="http://www.w3.org/2000/svg">
<path fill-rule="evenodd" clip-rule="evenodd" d="M9.84425 10.332C8.87885 11.0995 7.64476 11.56 6.29995 11.56C3.20715 11.56 0.699951 9.12442 0.699951 6.11999C0.699951 3.11556 3.20715 0.679993 6.29995 0.679993C9.39275 0.679993 11.9 3.11556 11.9 6.11999C11.9 7.42646 11.4259 8.62538 10.6357 9.56323C10.6408 9.56791 10.646 9.57269 10.651 9.57759L13.1487 12.0039C13.3674 12.2164 13.3674 12.5608 13.1487 12.7732C12.93 12.9857 12.5754 12.9857 12.3567 12.7732L9.85906 10.3469C9.854 10.342 9.84906 10.337 9.84425 10.332ZM10.78 6.11999C10.78 8.52353 8.77418 10.472 6.29995 10.472C3.82572 10.472 1.81995 8.52353 1.81995 6.11999C1.81995 3.71645 3.82572 1.76799 6.29995 1.76799C8.77418 1.76799 10.78 3.71645 10.78 6.11999Z" fill="#E8860B"/>
</svg>
